<svg width="25" height="24" viewBox="0 0 25 24" fill="none" xmlns="http://www.w3.org/2000/svg">
<g id="vuesax/bold/notification-bing">
<g id="notification-bing">
<path id="Vector" d="M20.6892 14.0676L19.5592 12.1876C19.3092 11.7776 19.0892 10.9876 19.0892 10.5076V8.63762C19.0892 5.00762 16.1392 2.05762 12.5192 2.05762C8.88923 2.06762 5.93923 5.00762 5.93923 8.63762V10.4976C5.93923 10.9776 5.71923 11.7676 5.47923 12.1776L4.34923 14.0576C3.91923 14.7876 3.81923 15.6176 4.08923 16.3376C4.35923 17.0676 4.96923 17.6476 5.76923 17.9076C6.84923 18.2676 7.93923 18.5276 9.04923 18.7176C9.15923 18.7376 9.26923 18.7476 9.37923 18.7676C9.51923 18.7876 9.66923 18.8076 9.81923 18.8276C10.0792 18.8676 10.3392 18.8976 10.6092 18.9176C11.2392 18.9776 11.8792 19.0076 12.5192 19.0076C13.1492 19.0076 13.7792 18.9776 14.3992 18.9176C14.6292 18.8976 14.8592 18.8776 15.0792 18.8476C15.2592 18.8276 15.4392 18.8076 15.6192 18.7776C15.7292 18.7676 15.8392 18.7476 15.9492 18.7276C17.0692 18.5476 18.1792 18.2676 19.2592 17.9076C20.0292 17.6476 20.6192 17.0676 20.8992 16.3276C21.1792 15.5776 21.0992 14.7576 20.6892 14.0676ZM13.2492 10.0076C13.2492 10.4276 12.9092 10.7676 12.4892 10.7676C12.0692 10.7676 11.7292 10.4276 11.7292 10.0076V6.90762C11.7292 6.48762 12.0692 6.14762 12.4892 6.14762C12.9092 6.14762 13.2492 6.48762 13.2492 6.90762V10.0076Z" fill="#00A86B"/>
<path id="Vector_2" d="M15.3297 20.0178C14.9097 21.1778 13.7997 22.0078 12.4997 22.0078C11.7097 22.0078 10.9297 21.6878 10.3797 21.1178C10.0597 20.8178 9.81969 20.4178 9.67969 20.0078C9.80969 20.0278 9.93969 20.0378 10.0797 20.0578C10.3097 20.0878 10.5497 20.1178 10.7897 20.1378C11.3597 20.1878 11.9397 20.2178 12.5197 20.2178C13.0897 20.2178 13.6597 20.1878 14.2197 20.1378C14.4297 20.1178 14.6397 20.1078 14.8397 20.0778C14.9997 20.0578 15.1597 20.0378 15.3297 20.0178Z" fill="#00A86B"/>
</g>
</g>
</svg>
