<svg width="25" height="24" viewBox="0 0 25 24" fill="none" xmlns="http://www.w3.org/2000/svg">
<g id="vuesax/bold/frame">
<g id="frame">
<path id="Vector" d="M12.5 2.00781C9.88 2.00781 7.75 4.13781 7.75 6.75781C7.75 9.32781 9.76 11.4078 12.38 11.4978C12.46 11.4878 12.54 11.4878 12.6 11.4978C12.62 11.4978 12.63 11.4978 12.65 11.4978C12.66 11.4978 12.66 11.4978 12.67 11.4978C15.23 11.4078 17.24 9.32781 17.25 6.75781C17.25 4.13781 15.12 2.00781 12.5 2.00781Z" fill="#00A86B"/>
<path id="Vector_2" d="M17.5809 14.1577C14.7909 12.2977 10.2409 12.2977 7.43094 14.1577C6.16094 15.0077 5.46094 16.1577 5.46094 17.3877C5.46094 18.6177 6.16094 19.7577 7.42094 20.5977C8.82094 21.5377 10.6609 22.0077 12.5009 22.0077C14.3409 22.0077 16.1809 21.5377 17.5809 20.5977C18.8409 19.7477 19.5409 18.6077 19.5409 17.3677C19.5309 16.1377 18.8409 14.9977 17.5809 14.1577Z" fill="#00A86B"/>
</g>
</g>
</svg>
