<svg width="24" height="24" viewBox="0 0 24 24" fill="none" xmlns="http://www.w3.org/2000/svg">
<g id="vuesax/bold/messages">
<g id="messages">
<path id="Vector" d="M13.19 6.00781H6.79C6.53 6.00781 6.28 6.01781 6.04 6.04781C3.35 6.27781 2 7.86781 2 10.7978V14.7978C2 18.7978 3.6 19.5878 6.79 19.5878H7.19C7.41 19.5878 7.7 19.7378 7.83 19.9078L9.03 21.5078C9.56 22.2178 10.42 22.2178 10.95 21.5078L12.15 19.9078C12.3 19.7078 12.54 19.5878 12.79 19.5878H13.19C16.12 19.5878 17.71 18.2478 17.94 15.5478C17.97 15.3078 17.98 15.0578 17.98 14.7978V10.7978C17.98 7.60781 16.38 6.00781 13.19 6.00781ZM6.5 14.0078C5.94 14.0078 5.5 13.5578 5.5 13.0078C5.5 12.4578 5.95 12.0078 6.5 12.0078C7.05 12.0078 7.5 12.4578 7.5 13.0078C7.5 13.5578 7.05 14.0078 6.5 14.0078ZM9.99 14.0078C9.43 14.0078 8.99 13.5578 8.99 13.0078C8.99 12.4578 9.44 12.0078 9.99 12.0078C10.54 12.0078 10.99 12.4578 10.99 13.0078C10.99 13.5578 10.55 14.0078 9.99 14.0078ZM13.49 14.0078C12.93 14.0078 12.49 13.5578 12.49 13.0078C12.49 12.4578 12.94 12.0078 13.49 12.0078C14.04 12.0078 14.49 12.4578 14.49 13.0078C14.49 13.5578 14.04 14.0078 13.49 14.0078Z" fill="#00A86B"/>
<path id="Vector_2" d="M21.9802 6.79781V10.7978C21.9802 12.7978 21.3602 14.1578 20.1202 14.9078C19.8202 15.0878 19.4702 14.8478 19.4702 14.4978L19.4802 10.7978C19.4802 6.79781 17.1902 4.50781 13.1902 4.50781L7.10025 4.51781C6.75025 4.51781 6.51025 4.16781 6.69025 3.86781C7.44025 2.62781 8.80025 2.00781 10.7902 2.00781H17.1902C20.3802 2.00781 21.9802 3.60781 21.9802 6.79781Z" fill="#00A86B"/>
</g>
</g>
</svg>
